<svg width="127" height="27" viewBox="0 0 127 27" fill="none" xmlns="http://www.w3.org/2000/svg">
<g filter="url(#filter0_d_211_43)">
<path d="M5.68338 6.03792C5.90763 6.03792 6.08941 5.84886 6.08941 5.61564C6.08941 5.38242 5.90763 5.19336 5.68338 5.19336C5.45913 5.19336 5.27734 5.38242 5.27734 5.61564C5.27734 5.84886 5.45913 6.03792 5.68338 6.03792Z" fill="url(#paint0_linear_211_43)"/>
</g>
<g filter="url(#filter1_d_211_43)">
<path d="M1.50174 18.4065C1.72599 18.4065 1.90778 18.2175 1.90778 17.9842C1.90778 17.751 1.72599 17.562 1.50174 17.562C1.27749 17.562 1.0957 17.751 1.0957 17.9842C1.0957 18.2175 1.27749 18.4065 1.50174 18.4065Z" fill="url(#paint1_linear_211_43)"/>
</g>
<g filter="url(#filter2_d_211_43)">
<path d="M25.5428 21.8016C25.767 21.8016 25.9488 21.6125 25.9488 21.3793C25.9488 21.1461 25.767 20.957 25.5428 20.957C25.3185 20.957 25.1367 21.1461 25.1367 21.3793C25.1367 21.6125 25.3185 21.8016 25.5428 21.8016Z" fill="url(#paint2_linear_211_43)"/>
</g>
<g filter="url(#filter3_d_211_43)">
<path d="M6.52761 14.6513C6.61405 14.6513 6.68412 14.5784 6.68412 14.4885C6.68412 14.3986 6.61405 14.3257 6.52761 14.3257C6.44117 14.3257 6.37109 14.3986 6.37109 14.4885C6.37109 14.5784 6.44117 14.6513 6.52761 14.6513Z" fill="url(#paint3_linear_211_43)"/>
</g>
<g filter="url(#filter4_d_211_43)">
<path d="M12.5233 1.51158C12.6591 1.51158 12.7692 1.39706 12.7692 1.25579C12.7692 1.11452 12.6591 1 12.5233 1C12.3874 1 12.2773 1.11452 12.2773 1.25579C12.2773 1.39706 12.3874 1.51158 12.5233 1.51158Z" fill="url(#paint4_linear_211_43)"/>
</g>
<g filter="url(#filter5_d_211_43)">
<path d="M3.22806 12.9061C3.14805 12.9187 3.07361 12.8679 3.04994 12.783C2.82806 12.0289 2.71137 11.9374 1.98574 11.965C1.902 11.9675 1.82828 11.906 1.81622 11.8228C1.804 11.7385 1.85617 11.6595 1.93657 11.6339C2.63061 11.4199 2.70534 11.3161 2.72254 10.5257C2.72459 10.438 2.77905 10.3669 2.85795 10.3545C2.93907 10.3417 3.0124 10.3929 3.03829 10.4773C3.25778 11.2306 3.37447 11.3221 4.09899 11.2946C4.18512 11.2929 4.25739 11.3525 4.26979 11.4379C4.28185 11.521 4.23189 11.5997 4.14928 11.6257C3.45445 11.8421 3.38067 11.9446 3.36569 12.7346C3.36159 12.8239 3.30585 12.894 3.22806 12.9061Z" fill="url(#paint5_linear_211_43)"/>
</g>
<path d="M16.6289 6.19353C16.4179 6.27642 16.2773 6.48608 16.2773 6.72008C16.2773 6.95408 16.4179 7.16364 16.6289 7.24653C18.3117 7.90318 19.6396 9.2842 20.2711 11.0344C20.3507 11.2537 20.5523 11.4001 20.7773 11.4001C21.0023 11.4001 21.2039 11.2537 21.2835 11.0344C21.915 9.2842 23.2429 7.90318 24.9257 7.24653C25.1367 7.16364 25.2773 6.95408 25.2773 6.72008C25.2773 6.48608 25.1367 6.27642 24.9257 6.19353C23.2429 5.53688 21.915 4.15583 21.2835 2.40566C21.2039 2.18629 21.0023 2.04004 20.7773 2.04004C20.5523 2.04004 20.3507 2.18629 20.2711 2.40566C19.6396 4.15583 18.3117 5.53688 16.6289 6.19353ZM10.8914 5.61342C10.7695 5.33553 10.5023 5.16008 10.2117 5.16008C9.92114 5.16008 9.65394 5.33553 9.53204 5.61342C7.93475 9.20006 5.1631 12.0815 1.71328 13.7401C1.44609 13.8667 1.27734 14.1446 1.27734 14.4517C1.27734 14.7589 1.44609 15.0318 1.71328 15.1586C5.16189 16.8151 7.93585 19.698 9.52734 23.2853C9.64924 23.5632 9.91644 23.7386 10.207 23.7386C10.4976 23.7386 10.7648 23.5632 10.8867 23.2853C12.4812 19.6948 15.253 16.8121 18.7054 15.1537C18.9726 15.0271 19.1414 14.7492 19.1414 14.4469C19.1414 14.1446 18.9726 13.8667 18.7054 13.7401C15.2562 12.0849 12.4842 9.19996 10.8914 5.61342ZM20.2711 18.0056C19.6396 19.7558 18.3117 21.1368 16.6289 21.7935C16.4179 21.8764 16.2773 22.0861 16.2773 22.3201C16.2773 22.5541 16.4179 22.7636 16.6289 22.8465C18.3117 23.5032 19.6396 24.8842 20.2711 26.6344C20.3507 26.8537 20.5523 27 20.7773 27C21.0023 27 21.2039 26.8537 21.2835 26.6344C21.915 24.8842 23.2429 23.5032 24.9257 22.8465C25.1367 22.7636 25.2773 22.5541 25.2773 22.3201C25.2773 22.0861 25.1367 21.8764 24.9257 21.7935C23.2429 21.1368 21.915 19.7558 21.2835 18.0056C21.2039 17.7863 21.0023 17.6401 20.7773 17.6401C20.5523 17.6401 20.3507 17.7863 20.2711 18.0056Z" fill="url(#paint6_linear_211_43)"/>
<path d="M12.9724 16.0856C5.80827 18.6732 0.34381 21.7986 0.76717 23.0664C1.19053 24.3341 7.34139 23.2642 14.5055 20.6766C21.6696 18.089 27.1341 14.9636 26.7107 13.6959C26.2873 12.4281 20.1365 13.498 12.9724 16.0856Z" stroke="url(#paint7_linear_211_43)" stroke-width="0.549291"/>
<g style="mix-blend-mode:screen" filter="url(#filter6_f_211_43)">
<path d="M12.9724 16.0857C5.80827 18.6733 0.34381 21.7987 0.76717 23.0664C1.19053 24.3342 7.34139 23.2643 14.5055 20.6767C21.6696 18.0891 27.1341 14.9637 26.7107 13.6959C26.2873 12.4281 20.1365 13.4981 12.9724 16.0857Z" stroke="url(#paint8_linear_211_43)" stroke-width="0.549291"/>
</g>
<g filter="url(#filter7_d_211_43)">
<path d="M23.8729 7.36177C23.7625 7.34534 23.6836 7.24737 23.6847 7.12559C23.6796 6.03816 23.5604 5.86916 22.5916 5.60594C22.4801 5.57474 22.4062 5.46284 22.422 5.34812C22.4381 5.23175 22.5372 5.14897 22.6531 5.14834C23.6513 5.15229 23.7897 5.046 24.1141 4.0094C24.1503 3.89443 24.2494 3.82298 24.3583 3.8392C24.4703 3.85589 24.5476 3.95363 24.5495 4.07593C24.5519 5.16124 24.671 5.33034 25.6383 5.59325C25.7527 5.62653 25.8254 5.735 25.8092 5.85294C25.7934 5.96765 25.6973 6.05096 25.5783 6.05116C24.5781 6.05012 24.4415 6.15496 24.1202 7.19204C24.0807 7.30821 23.9803 7.37778 23.8729 7.36177Z" fill="url(#paint9_linear_211_43)"/>
</g>
<path d="M29.44 25.46C29.44 23.38 29.4667 21.5067 29.52 19.84C29.5867 18.16 29.6667 16.6333 29.76 15.26C29.8667 13.8733 29.98 12.5867 30.1 11.4C30.2333 10.2 30.36 9.05333 30.48 7.96L33.92 8.1C33.8667 8.51333 33.8067 8.96 33.74 9.44C34.1933 10.0533 34.6867 10.7533 35.22 11.54C35.7667 12.3267 36.32 13.16 36.88 14.04C37.4533 14.9067 38.0133 15.78 38.56 16.66C39.1067 17.5267 39.6267 18.36 40.12 19.16C40.6133 19.9467 41.0467 20.6533 41.42 21.28C41.5133 20.36 41.56 19.0667 41.56 17.4C41.56 16.5467 41.5467 15.6667 41.52 14.76C41.4933 13.8533 41.46 12.9867 41.42 12.16C41.38 11.32 41.3267 10.5733 41.26 9.92C41.1933 9.25333 41.12 8.73333 41.04 8.36L44.8 7.9C44.8267 8.55333 44.84 9.41333 44.84 10.48C44.8533 11.5333 44.86 12.6533 44.86 13.84C44.86 14.8933 44.8533 15.9533 44.84 17.02C44.8267 18.0733 44.8 19.0467 44.76 19.94C44.72 20.8333 44.66 21.5733 44.58 22.16C44.4333 23.3067 44.14 24.1533 43.7 24.7C43.26 25.2467 42.64 25.52 41.84 25.52C41.1867 25.52 40.5867 25.2933 40.04 24.84C39.5067 24.3867 38.9267 23.64 38.3 22.6C37.8733 21.88 37.3733 21.0533 36.8 20.12C36.24 19.1733 35.6533 18.2067 35.04 17.22C34.44 16.2333 33.86 15.2933 33.3 14.4C33.1933 15.96 33.1133 17.52 33.06 19.08C33.0067 20.6267 32.98 22.0267 32.98 23.28C32.98 23.68 32.98 24.0533 32.98 24.4C32.98 24.76 32.9867 25.0933 33 25.4L29.44 25.46ZM52.2808 25.58C51.2808 25.58 50.3741 25.32 49.5608 24.8C48.7474 24.2933 48.1008 23.6067 47.6208 22.74C47.1541 21.86 46.9208 20.88 46.9208 19.8C46.9208 18.7867 47.1074 17.8733 47.4808 17.06C47.8541 16.2333 48.3608 15.5267 49.0008 14.94C49.6541 14.3533 50.3941 13.9067 51.2208 13.6C52.0474 13.28 52.9141 13.12 53.8208 13.12C54.5808 13.12 55.3274 13.2267 56.0608 13.44C56.1141 13.16 56.1608 12.88 56.2008 12.6L59.6208 13.18C59.5274 13.4333 59.4341 13.8133 59.3408 14.32C59.2474 14.8267 59.1674 15.3933 59.1008 16.02C59.0474 16.6467 59.0008 17.2733 58.9608 17.9C58.9208 18.5267 58.9008 19.0933 58.9008 19.6C58.9008 20.0133 58.9274 20.42 58.9808 20.82C59.0474 21.2067 59.1808 21.5267 59.3808 21.78C59.5808 22.02 59.8874 22.14 60.3008 22.14H60.5808L60.0808 25.62C59.2008 25.62 58.4741 25.4667 57.9008 25.16C57.3274 24.8667 56.8674 24.4667 56.5208 23.96C55.9474 24.6 55.2941 25.0267 54.5608 25.24C53.8274 25.4667 53.0674 25.58 52.2808 25.58ZM50.2008 20.2C50.2674 20.84 50.5274 21.3533 50.9808 21.74C51.4474 22.1133 52.0341 22.3 52.7408 22.3C53.4208 22.3 53.9874 22.12 54.4408 21.76C54.8941 21.3867 55.2674 20.88 55.5608 20.24C55.5474 20.0267 55.5408 19.8067 55.5408 19.58C55.5408 19.1133 55.5541 18.6333 55.5808 18.14C55.6074 17.6467 55.6408 17.16 55.6808 16.68C55.1208 16.4667 54.5341 16.36 53.9208 16.36C53.2008 16.36 52.5541 16.5067 51.9808 16.8C51.4208 17.08 50.9808 17.4733 50.6608 17.98C50.3408 18.4867 50.1808 19.0733 50.1808 19.74C50.1808 19.82 50.1808 19.9 50.1808 19.98C50.1808 20.06 50.1874 20.1333 50.2008 20.2ZM67.5711 25.56C67.0244 25.56 66.5511 25.4 66.1511 25.08C65.7511 24.76 65.4044 24.3667 65.1111 23.9C64.8178 23.4333 64.5578 22.98 64.3311 22.54C63.9178 21.7 63.5244 20.78 63.1511 19.78C62.7778 18.78 62.4511 17.74 62.1711 16.66C61.8911 15.58 61.6778 14.5133 61.5311 13.46L65.1511 12.94C65.2578 14.18 65.4244 15.3467 65.6511 16.44C65.8778 17.5333 66.1444 18.5067 66.4511 19.36C66.7578 20.2133 67.0711 20.9067 67.3911 21.44C67.4578 21.5333 67.5178 21.6267 67.5711 21.72C67.6378 21.8133 67.6711 21.86 67.6711 21.86C67.6978 21.86 67.8044 21.72 67.9911 21.44C68.5778 20.4133 69.1244 19.2133 69.6311 17.84C70.1378 16.4667 70.5778 14.8067 70.9511 12.86L74.4711 13.56C74.1244 14.8133 73.8044 15.9067 73.5111 16.84C73.2178 17.76 72.9311 18.5667 72.6511 19.26C72.3711 19.9533 72.0911 20.58 71.8111 21.14C71.5311 21.6867 71.2378 22.22 70.9311 22.74C70.7311 23.1 70.4711 23.5 70.1511 23.94C69.8444 24.38 69.4778 24.76 69.0511 25.08C68.6244 25.4 68.1311 25.56 67.5711 25.56ZM76.0289 11.08C76.0289 10.96 76.0222 10.84 76.0089 10.72C76.0089 10.5867 76.0089 10.44 76.0089 10.28C76.0089 9.85333 76.0222 9.4 76.0489 8.92C76.0756 8.44 76.1022 8.03333 76.1289 7.7L79.6889 7.76C79.6489 8.21333 79.6022 8.72667 79.5489 9.3C79.5089 9.87333 79.4822 10.4667 79.4689 11.08H76.0289ZM75.9489 25.4C75.9089 24.5733 75.8822 23.6933 75.8689 22.76C75.8556 21.8133 75.8489 20.8667 75.8489 19.92C75.8489 18.68 75.8622 17.4733 75.8889 16.3C75.9156 15.1267 75.9489 14.06 75.9889 13.1L79.4289 13.08C79.3756 13.6933 79.3422 14.4533 79.3289 15.36C79.3156 16.2533 79.3089 17.1933 79.3089 18.18C79.3089 19.1533 79.3156 20.1133 79.3289 21.06C79.3422 22.0067 79.3556 22.8667 79.3689 23.64C79.3956 24.4 79.4156 24.9867 79.4289 25.4H75.9489ZM81.5223 25.44C81.4823 24.2667 81.449 23.18 81.4223 22.18C81.409 21.18 81.4023 20.1933 81.4023 19.22C81.4023 18.2467 81.409 17.2733 81.4223 16.3C81.449 15.3133 81.489 14.26 81.5423 13.14H84.9223C84.869 13.74 84.8223 14.3467 84.7823 14.96C85.2357 14.3867 85.7757 13.9133 86.4023 13.54C87.029 13.1533 87.769 12.96 88.6223 12.96C89.4623 12.96 90.149 13.1 90.6823 13.38C91.229 13.66 91.6557 14.0467 91.9623 14.54C92.2823 15.0333 92.509 15.6 92.6423 16.24C92.789 16.8667 92.8823 17.5467 92.9223 18.28C92.9623 19 92.9823 19.7267 92.9823 20.46C92.9823 21.26 92.969 22.0267 92.9423 22.76C92.9157 23.4933 92.889 24.1067 92.8623 24.6C92.8357 25.0933 92.8157 25.3867 92.8023 25.48H89.4423C89.469 24.9333 89.4957 24.3533 89.5223 23.74C89.549 23.1133 89.5757 22.5 89.6023 21.9C89.629 21.2867 89.6423 20.7333 89.6423 20.24C89.6423 17.4 89.1823 15.98 88.2623 15.98C87.5023 15.98 86.809 16.3133 86.1823 16.98C85.569 17.6333 85.0557 18.46 84.6423 19.46C84.6423 19.5933 84.6423 19.7267 84.6423 19.86C84.6423 20.5 84.6423 21.1667 84.6423 21.86C84.6557 22.54 84.669 23.1933 84.6823 23.82C84.709 24.4333 84.729 24.9667 84.7423 25.42L81.5223 25.44ZM96.8566 25.62C96.3499 25.62 95.9299 25.5067 95.5966 25.28C95.2632 25.0533 95.0166 24.76 94.8566 24.4C94.6966 24.04 94.6166 23.6667 94.6166 23.28C94.6166 22.5467 94.8499 21.9867 95.3166 21.6C95.7832 21.2 96.3432 21 96.9966 21C97.6632 21 98.1899 21.2 98.5766 21.6C98.9632 22 99.1566 22.5333 99.1566 23.2C99.1566 24.0533 98.9232 24.6667 98.4566 25.04C98.0032 25.4267 97.4699 25.62 96.8566 25.62ZM100.697 11.08C100.697 10.96 100.69 10.84 100.677 10.72C100.677 10.5867 100.677 10.44 100.677 10.28C100.677 9.85333 100.69 9.4 100.717 8.92C100.744 8.44 100.77 8.03333 100.797 7.7L104.357 7.76C104.317 8.21333 104.27 8.72667 104.217 9.3C104.177 9.87333 104.15 10.4667 104.137 11.08H100.697ZM100.617 25.4C100.577 24.5733 100.55 23.6933 100.537 22.76C100.524 21.8133 100.517 20.8667 100.517 19.92C100.517 18.68 100.53 17.4733 100.557 16.3C100.584 15.1267 100.617 14.06 100.657 13.1L104.097 13.08C104.044 13.6933 104.01 14.4533 103.997 15.36C103.984 16.2533 103.977 17.1933 103.977 18.18C103.977 19.1533 103.984 20.1133 103.997 21.06C104.01 22.0067 104.024 22.8667 104.037 23.64C104.064 24.4 104.084 24.9867 104.097 25.4H100.617ZM111.97 25.64C110.904 25.64 109.97 25.4667 109.17 25.12C108.384 24.7733 107.73 24.3 107.21 23.7C106.69 23.0867 106.304 22.3867 106.05 21.6C105.797 20.8133 105.67 19.9867 105.67 19.12C105.67 18.24 105.824 17.4267 106.13 16.68C106.45 15.92 106.884 15.26 107.43 14.7C107.99 14.14 108.644 13.7067 109.39 13.4C110.137 13.08 110.95 12.92 111.83 12.92C112.75 12.92 113.604 13.08 114.39 13.4C115.177 13.72 115.864 14.1667 116.45 14.74C117.037 15.3133 117.49 15.9867 117.81 16.76C118.144 17.5333 118.31 18.3733 118.31 19.28C118.31 21.2933 117.757 22.86 116.65 23.98C115.544 25.0867 113.984 25.64 111.97 25.64ZM111.95 22.4C112.924 22.4 113.664 22.1267 114.17 21.58C114.69 21.0333 114.95 20.2467 114.95 19.22C114.95 18.3 114.67 17.56 114.11 17C113.55 16.44 112.817 16.16 111.91 16.16C111.364 16.16 110.864 16.3067 110.41 16.6C109.957 16.88 109.59 17.26 109.31 17.74C109.044 18.2067 108.91 18.7267 108.91 19.3C108.91 19.8067 109.01 20.3 109.21 20.78C109.424 21.26 109.757 21.6533 110.21 21.96C110.664 22.2533 111.244 22.4 111.95 22.4Z" fill="url(#paint10_linear_211_43)"/>
<defs>
<filter id="filter0_d_211_43" x="4.39145" y="4.30746" width="2.5843" height="2.61652" filterUnits="userSpaceOnUse" color-interpolation-filters="sRGB">
<feFlood flood-opacity="0" result="BackgroundImageFix"/>
<feColorMatrix in="SourceAlpha" type="matrix" values="0 0 0 0 0 0 0 0 0 0 0 0 0 0 0 0 0 0 127 0" result="hardAlpha"/>
<feOffset/>
<feGaussianBlur stdDeviation="0.442949"/>
<feComposite in2="hardAlpha" operator="out"/>
<feColorMatrix type="matrix" values="0 0 0 0 0.592157 0 0 0 0 0.392157 0 0 0 0 1 0 0 0 1 0"/>
<feBlend mode="normal" in2="BackgroundImageFix" result="effect1_dropShadow_211_43"/>
<feBlend mode="normal" in="SourceGraphic" in2="effect1_dropShadow_211_43" result="shape"/>
</filter>
<filter id="filter1_d_211_43" x="0.209805" y="16.6761" width="2.5843" height="2.61652" filterUnits="userSpaceOnUse" color-interpolation-filters="sRGB">
<feFlood flood-opacity="0" result="BackgroundImageFix"/>
<feColorMatrix in="SourceAlpha" type="matrix" values="0 0 0 0 0 0 0 0 0 0 0 0 0 0 0 0 0 0 127 0" result="hardAlpha"/>
<feOffset/>
<feGaussianBlur stdDeviation="0.442949"/>
<feComposite in2="hardAlpha" operator="out"/>
<feColorMatrix type="matrix" values="0 0 0 0 0.592157 0 0 0 0 0.392157 0 0 0 0 1 0 0 0 1 0"/>
<feBlend mode="normal" in2="BackgroundImageFix" result="effect1_dropShadow_211_43"/>
<feBlend mode="normal" in="SourceGraphic" in2="effect1_dropShadow_211_43" result="shape"/>
</filter>
<filter id="filter2_d_211_43" x="24.2508" y="20.0711" width="2.5843" height="2.61652" filterUnits="userSpaceOnUse" color-interpolation-filters="sRGB">
<feFlood flood-opacity="0" result="BackgroundImageFix"/>
<feColorMatrix in="SourceAlpha" type="matrix" values="0 0 0 0 0 0 0 0 0 0 0 0 0 0 0 0 0 0 127 0" result="hardAlpha"/>
<feOffset/>
<feGaussianBlur stdDeviation="0.442949"/>
<feComposite in2="hardAlpha" operator="out"/>
<feColorMatrix type="matrix" values="0 0 0 0 0.592157 0 0 0 0 0.392157 0 0 0 0 1 0 0 0 1 0"/>
<feBlend mode="normal" in2="BackgroundImageFix" result="effect1_dropShadow_211_43"/>
<feBlend mode="normal" in="SourceGraphic" in2="effect1_dropShadow_211_43" result="shape"/>
</filter>
<filter id="filter3_d_211_43" x="6.02961" y="13.9842" width="0.995472" height="1.00866" filterUnits="userSpaceOnUse" color-interpolation-filters="sRGB">
<feFlood flood-opacity="0" result="BackgroundImageFix"/>
<feColorMatrix in="SourceAlpha" type="matrix" values="0 0 0 0 0 0 0 0 0 0 0 0 0 0 0 0 0 0 127 0" result="hardAlpha"/>
<feOffset/>
<feGaussianBlur stdDeviation="0.170743"/>
<feComposite in2="hardAlpha" operator="out"/>
<feColorMatrix type="matrix" values="0 0 0 0 0.592157 0 0 0 0 0.392157 0 0 0 0 1 0 0 0 1 0"/>
<feBlend mode="normal" in2="BackgroundImageFix" result="effect1_dropShadow_211_43"/>
<feBlend mode="normal" in="SourceGraphic" in2="effect1_dropShadow_211_43" result="shape"/>
</filter>
<filter id="filter4_d_211_43" x="11.7407" y="0.463378" width="1.56543" height="1.58496" filterUnits="userSpaceOnUse" color-interpolation-filters="sRGB">
<feFlood flood-opacity="0" result="BackgroundImageFix"/>
<feColorMatrix in="SourceAlpha" type="matrix" values="0 0 0 0 0 0 0 0 0 0 0 0 0 0 0 0 0 0 127 0" result="hardAlpha"/>
<feOffset/>
<feGaussianBlur stdDeviation="0.268311"/>
<feComposite in2="hardAlpha" operator="out"/>
<feColorMatrix type="matrix" values="0 0 0 0 0.592157 0 0 0 0 0.392157 0 0 0 0 1 0 0 0 1 0"/>
<feBlend mode="normal" in2="BackgroundImageFix" result="effect1_dropShadow_211_43"/>
<feBlend mode="normal" in="SourceGraphic" in2="effect1_dropShadow_211_43" result="shape"/>
</filter>
<filter id="filter5_d_211_43" x="0.732829" y="9.55252" width="4.62028" height="4.71891" filterUnits="userSpaceOnUse" color-interpolation-filters="sRGB">
<feFlood flood-opacity="0" result="BackgroundImageFix"/>
<feColorMatrix in="SourceAlpha" type="matrix" values="0 0 0 0 0 0 0 0 0 0 0 0 0 0 0 0 0 0 127 0" result="hardAlpha"/>
<feOffset dy="0.281606"/>
<feGaussianBlur stdDeviation="0.540812"/>
<feComposite in2="hardAlpha" operator="out"/>
<feColorMatrix type="matrix" values="0 0 0 0 0.220722 0 0 0 0 0.210451 0 0 0 0 0.241667 0 0 0 0.6 0"/>
<feBlend mode="normal" in2="BackgroundImageFix" result="effect1_dropShadow_211_43"/>
<feBlend mode="normal" in="SourceGraphic" in2="effect1_dropShadow_211_43" result="shape"/>
</filter>
<filter id="filter6_f_211_43" x="0.21436" y="12.6338" width="27.0478" height="11.4951" filterUnits="userSpaceOnUse" color-interpolation-filters="sRGB">
<feFlood flood-opacity="0" result="BackgroundImageFix"/>
<feBlend mode="normal" in="SourceGraphic" in2="BackgroundImageFix" result="shape"/>
<feGaussianBlur stdDeviation="0.127195" result="effect1_foregroundBlur_211_43"/>
</filter>
<filter id="filter7_d_211_43" x="20.2895" y="2.26113" width="7.65155" height="7.78826" filterUnits="userSpaceOnUse" color-interpolation-filters="sRGB">
<feFlood flood-opacity="0" result="BackgroundImageFix"/>
<feColorMatrix in="SourceAlpha" type="matrix" values="0 0 0 0 0 0 0 0 0 0 0 0 0 0 0 0 0 0 127 0" result="hardAlpha"/>
<feOffset dy="0.554677"/>
<feGaussianBlur stdDeviation="1.06523"/>
<feComposite in2="hardAlpha" operator="out"/>
<feColorMatrix type="matrix" values="0 0 0 0 0.296824 0 0 0 0 0.244184 0 0 0 0 0.404167 0 0 0 0.6 0"/>
<feBlend mode="normal" in2="BackgroundImageFix" result="effect1_dropShadow_211_43"/>
<feBlend mode="normal" in="SourceGraphic" in2="effect1_dropShadow_211_43" result="shape"/>
</filter>
<linearGradient id="paint0_linear_211_43" x1="5.3014" y1="5.57196" x2="6.10875" y2="5.58831" gradientUnits="userSpaceOnUse">
<stop stop-color="#26A4FF"/>
<stop offset="1" stop-color="#0D9AFF"/>
</linearGradient>
<linearGradient id="paint1_linear_211_43" x1="1.11976" y1="17.9406" x2="1.92712" y2="17.9568" gradientUnits="userSpaceOnUse">
<stop stop-color="#26A4FF"/>
<stop offset="1" stop-color="#0D9AFF"/>
</linearGradient>
<linearGradient id="paint2_linear_211_43" x1="25.1609" y1="21.3356" x2="25.9682" y2="21.352" gradientUnits="userSpaceOnUse">
<stop stop-color="#26A4FF"/>
<stop offset="1" stop-color="#0D9AFF"/>
</linearGradient>
<linearGradient id="paint3_linear_211_43" x1="6.38037" y1="14.4718" x2="6.69158" y2="14.478" gradientUnits="userSpaceOnUse">
<stop stop-color="#26A4FF"/>
<stop offset="1" stop-color="#0D9AFF"/>
</linearGradient>
<linearGradient id="paint4_linear_211_43" x1="12.2919" y1="1.22933" x2="12.7809" y2="1.23921" gradientUnits="userSpaceOnUse">
<stop stop-color="#26A4FF"/>
<stop offset="1" stop-color="#0D9AFF"/>
</linearGradient>
<linearGradient id="paint5_linear_211_43" x1="4.17795" y1="11.3173" x2="1.74113" y2="11.7212" gradientUnits="userSpaceOnUse">
<stop stop-color="#26A4FF"/>
<stop offset="1" stop-color="#0D9AFF"/>
</linearGradient>
<linearGradient id="paint6_linear_211_43" x1="1.27734" y1="2.04004" x2="26.2181" y2="26.0216" gradientUnits="userSpaceOnUse">
<stop stop-color="#868CFF"/>
<stop offset="1" stop-color="#4318FF"/>
</linearGradient>
<linearGradient id="paint7_linear_211_43" x1="1.18322" y1="24.8027" x2="0.114828" y2="21.7887" gradientUnits="userSpaceOnUse">
<stop stop-color="#3F5FFF"/>
<stop offset="1" stop-color="#3F5FFF" stop-opacity="0"/>
</linearGradient>
<linearGradient id="paint8_linear_211_43" x1="1.18322" y1="24.8027" x2="0.114827" y2="21.7888" gradientUnits="userSpaceOnUse">
<stop stop-color="#1DA0FF"/>
<stop offset="1" stop-color="#199FFF" stop-opacity="0.13"/>
</linearGradient>
<linearGradient id="paint9_linear_211_43" x1="25.7339" y1="5.65576" x2="22.3526" y2="5.25926" gradientUnits="userSpaceOnUse">
<stop stop-color="#26A4FF"/>
<stop offset="1" stop-color="#0D9AFF"/>
</linearGradient>
<linearGradient id="paint10_linear_211_43" x1="28" y1="13.5" x2="127" y2="13.5" gradientUnits="userSpaceOnUse">
<stop stop-color="#736BFF" stop-opacity="0.9"/>
<stop offset="0.755" stop-color="#5D45FF"/>
</linearGradient>
</defs>
</svg>
